# xmcd
#
# Track frame offsets: 
#        150
#        15310
#        32150
#        50433
#        67826
#        82128
#        103033
#        120355
#        136095
#        151240
#        165277
#        185016
#        203581
#        218286
#        233481
#        254173
#        270075
#        289010
#        310923
#        329006
#        348534
#
# Disc length: 4804 seconds
#
# Revision: 0
# Processed by: cddbd v1.5.2PL0 Copyright (c) Steve Scherf et al.
# Submitted via: ExactAudioCopy v0.95a5
#
DISCID=1812c215
DTITLE=George THOROGOOD - The Baddest of ... CD-2
DYEAR=2004
DGENRE=Blues
TTITLE0=You Got To Lose
TTITLE1=She's Gone
TTITLE2=Down in the Bottom
TTITLE3=The Usual
TTITLE4=Devil In Disguise
TTITLE5=One Way Ticket
TTITLE6=Hard Stuff
TTITLE7=Shake Your Money Maker
TTITLE8=Greedy Man
TTITLE9=Tip On In
TTITLE10=Rock Party
TTITLE11=Gone Dead Train
TTITLE12=Smokestack Lightning
TTITLE13=So Much Trouble
TTITLE14=You Talk Too Much
TTITLE15=It's A Sin
TTITLE16=Get a Haircut
TTITLE17=Bad To The Bone
TTITLE18=I'm Movin' On
TTITLE19=Move It On Over
TTITLE20=Rock&Roll Man
EXTD=
EXTT0=
EXTT1=
EXTT2=
EXTT3=
EXTT4=
EXTT5=
EXTT6=
EXTT7=
EXTT8=
EXTT9=
EXTT10=
EXTT11=
EXTT12=
EXTT13=
EXTT14=
EXTT15=
EXTT16=
EXTT17=
EXTT18=
EXTT19=
EXTT20=
PLAYORDER=
